<svg xmlns="http://www.w3.org/2000/svg" xmlns:xlink="http://www.w3.org/1999/xlink" version="1.1" width="347.741pt" height="140.15644pt" viewBox="0 0 347.741 140.15644">
<path transform="matrix(1,0,0,-1,2.3182984,2.440979)" stroke-width=".797" stroke-linecap="butt" stroke-miterlimit="10" stroke-linejoin="miter" fill="none" stroke="#000000" d="M0 0H343.711"/>
<text xml:space="preserve" transform="matrix(1 0 -0 1 -131.4497 719.13)" font-size="9.9626" font-family="CMBX10" font-weight="bold"><tspan y="-707.38" x="133.768 142.4255 145.60358 151.33208 157.06058 161.78285 164.96092 169.4142 175.7803 189.15012">Algorithm0</tspan></text>
<text xml:space="preserve" transform="matrix(1 0 -0 1 -131.4497 719.13)" font-size="9.9626" font-family="CMR10"><tspan y="-707.38" x="198.207 203.7462 206.51581 214.81465 220.35385 223.12346 225.89307 228.65769 231.43227 235.85567 244.71242 251.35749 256.33879 261.878 264.64759 267.41719 270.18678 278.4856 284.99119 289.97248 292.74208 295.51167 299.93507 308.52284 316.34349 320.2488 325.2301 330.76933 333.5389 337.9623 343.22257 350.41557 357.8875 360.6571 365.6384 370.6197 374.52503 377.29463 381.17008 386.7093">SimplifiedVanillaPolicyGradientAlgorithm</tspan></text>
<path transform="matrix(1,0,0,-1,2.3182984,15.879028)" stroke-width=".398" stroke-linecap="butt" stroke-miterlimit="10" stroke-linejoin="miter" fill="none" stroke="#000000" d="M0 0H343.711"/>
<text xml:space="preserve" transform="matrix(1 0 -0 1 -131.4497 719.13)" font-size="7.9701" font-family="CMR8"><tspan y="-694.141" x="139.137 143.36911">1:</tspan></text>
<text xml:space="preserve" transform="matrix(1 0 -0 1 -131.4497 719.13)" font-size="9.9626" font-family="CMR10"><tspan y="-694.141" x="150.70499 154.30149 159.84069 162.61029 166.48575 169.25536 174.23665 177.00626 179.77587 184.19927 191.94022 195.81568 201.35488 209.10579 214.91399 219.89528 222.66489 225.4345 229.8579">Initializethepolicy</tspan></text>
<text xml:space="preserve" transform="matrix(1 0 -0 1 -131.4497 719.13)" font-size="9.9626" font-family="CMMI10" font-style="italic"><tspan y="-694.141" x="238.43198">&#x03c0;</tspan></text>
<text xml:space="preserve" transform="matrix(1 0 -0 1 -131.4497 719.13)" font-size="9.9626" font-family="CMR10"><tspan y="-694.141" x="247.78897 252.77027 258.30949 267.16624 271.0417 276.5809 284.33183 289.03419 294.01548 296.78507 302.32429 310.06523 313.11378 318.65299 324.1922 328.6156 332.49107 335.26066 340.24195">andthevaluefunction</tspan></text>
<text xml:space="preserve" transform="matrix(1 0 -0 1 -131.4497 719.13)" font-size="9.9626" font-family="CMMI10" font-style="italic"><tspan y="-694.141" x="349.076">V</tspan></text>
<text xml:space="preserve" transform="matrix(1 0 -0 1 -131.4497 719.13)" font-size="9.9626" font-family="CMR10"><tspan y="-694.141" x="357.10099">.</tspan></text>
<text xml:space="preserve" transform="matrix(1 0 -0 1 -131.4497 719.13)" font-size="7.9701" font-family="CMR8"><tspan y="-682.185" x="139.13698 143.3691">2:</tspan></text>
<text xml:space="preserve" transform="matrix(1 0 -0 1 -131.4497 719.13)" font-size="9.9626" font-family="CMBX10" font-weight="bold"><tspan y="-682.185" x="150.70497 154.20185 159.93035">for</tspan></text>
<text xml:space="preserve" transform="matrix(1 0 -0 1 -131.4497 719.13)" font-size="9.9626" font-family="CMMI10" font-style="italic"><tspan y="-682.185" x="167.97298">k</tspan></text>
<text xml:space="preserve" transform="matrix(1 0 -0 1 -131.4497 719.13)" font-size="9.9626" font-family="CMR10"><tspan y="-682.185" x="176.24098 186.76149">=0</tspan></text>
<text xml:space="preserve" transform="matrix(1 0 -0 1 -131.4497 719.13)" font-size="9.9626" font-family="CMMI10" font-style="italic"><tspan y="-682.185" x="191.73798">,</tspan></text>
<text xml:space="preserve" transform="matrix(1 0 -0 1 -131.4497 719.13)" font-size="9.9626" font-family="CMR10"><tspan y="-682.185" x="196.16597">1</tspan></text>
<text xml:space="preserve" transform="matrix(1 0 -0 1 -131.4497 719.13)" font-size="9.9626" font-family="CMMI10" font-style="italic"><tspan y="-682.185" x="201.14698">,</tspan></text>
<text xml:space="preserve" transform="matrix(1 0 -0 1 -131.4497 719.13)" font-size="9.9626" font-family="CMR10"><tspan y="-682.185" x="205.57497">2</tspan></text>
<text xml:space="preserve" transform="matrix(1 0 -0 1 -131.4497 719.13)" font-size="9.9626" font-family="CMMI10" font-style="italic"><tspan y="-682.185" x="210.55696 214.99033 217.75994 220.52954">,...</tspan></text>
<text xml:space="preserve" transform="matrix(1 0 -0 1 -131.4497 719.13)" font-size="9.9626" font-family="CMBX10" font-weight="bold"><tspan y="-682.185" x="226.60796 232.97406">do</tspan></text>
<text xml:space="preserve" transform="matrix(1 0 -0 1 -131.4497 719.13)" font-size="7.9701" font-family="CMR8"><tspan y="-670.23" x="139.13697 143.36908">3:</tspan></text>
<text xml:space="preserve" transform="matrix(1 0 -0 1 -131.4497 719.13)" font-size="9.9626" font-family="CMR10"><tspan y="-670.23" x="165.64896 172.84195 177.82324 180.59285 183.36246 187.78586 192.20926 199.40227 203.32753 207.75093 214.9539 219.9352 226.3013 230.17676 234.08209 239.62129 242.66985 247.09325 251.51665 255.3921 260.3734 264.27876 267.04835 271.47175">Collectsetoftrajectories</tspan></text>
<text xml:space="preserve" transform="matrix(1 0 -0 1 -131.4497 719.13)" font-size="9.9626" font-family="CMMI10" font-style="italic"><tspan y="-670.23" x="278.72496">D</tspan></text>
<text xml:space="preserve" transform="matrix(1 0 -0 1 -131.4497 719.13)" font-size="6.9738" font-family="CMMI7" font-style="italic"><tspan y="-668.73599" x="286.97294">k</tspan></text>
<text xml:space="preserve" transform="matrix(1 0 -0 1 -131.4497 719.13)" font-size="9.9626" font-family="CMR10"><tspan y="-670.23" x="294.64195">=</tspan></text>
<text xml:space="preserve" transform="matrix(1 0 -0 1 -131.4497 719.13)" font-size="9.9626" font-family="CMSY10" font-style="italic"><tspan y="-670.23" x="305.15794">{</tspan></text>
<text xml:space="preserve" transform="matrix(1 0 -0 1 -131.4497 719.13)" font-size="9.9626" font-family="CMMI10" font-style="italic"><tspan y="-670.23" x="310.13993">&#x03c4;</tspan></text>
<text xml:space="preserve" transform="matrix(1 0 -0 1 -131.4497 719.13)" font-size="6.9738" font-family="CMMI7" font-style="italic"><tspan y="-668.73599" x="314.49494">i</tspan></text>
<text xml:space="preserve" transform="matrix(1 0 -0 1 -131.4497 719.13)" font-size="9.9626" font-family="CMSY10" font-style="italic"><tspan y="-670.23" x="317.81193">}</tspan></text>
<text xml:space="preserve" transform="matrix(1 0 -0 1 -131.4497 719.13)" font-size="9.9626" font-family="CMR10"><tspan y="-670.23" x="326.11393 331.37419 339.95198 343.8573 349.3965 354.93574 360.47496 363.24455 368.78376">byrunning</tspan><tspan y="-658.27499" x="270.25694 276.0751 281.0564 283.826 286.59559 291.01899">policy</tspan></text>
<text xml:space="preserve" transform="matrix(1 0 -0 1 -131.4497 719.13)" font-size="9.9626" font-family="CMMI10" font-style="italic"><tspan y="-658.27499" x="299.59095">&#x03c0;</tspan></text>
<text xml:space="preserve" transform="matrix(1 0 -0 1 -131.4497 719.13)" font-size="6.9738" font-family="CMMI7" font-style="italic"><tspan y="-656.78097" x="305.26994">k</tspan></text>
<text xml:space="preserve" transform="matrix(1 0 -0 1 -131.4497 719.13)" font-size="9.9626" font-family="CMR10"><tspan y="-658.27499" x="313.49293 316.2625 325.11927 328.99473 334.53395 342.28486 346.70826 351.9685 357.22877 359.99836 363.9037 368.88499 374.4242 382.72306 387.14646 392.4067 396.28218">intheenvironment.</tspan></text>
<text xml:space="preserve" transform="matrix(1 0 -0 1 -131.4497 719.13)" font-size="7.9701" font-family="CMR8"><tspan y="-646.31997" x="139.13692 143.36904">4:</tspan></text>
<text xml:space="preserve" transform="matrix(1 0 -0 1 -131.4497 719.13)" font-size="9.9626" font-family="CMR10"><tspan y="-646.31997" x="165.64891 172.8419 177.8232 186.12204 191.66124 197.20044 201.0759 208.81685 211.8654 217.4046 221.28006 226.81926 230.7246 238.47551 242.38085 246.80425 250.6797 256.2189 260.1143 265.6535">Computefuturereturns</tspan></text>
<text xml:space="preserve" transform="matrix(1 0 -0 1 -131.4497 719.13)" font-size="9.9626" font-family="CMMI10" font-style="italic"><tspan y="-646.31997" x="272.88594">R</tspan></text>
<text xml:space="preserve" transform="matrix(1 0 -0 1 -131.4497 719.13)" font-size="6.9738" font-family="CMMI7" font-style="italic"><tspan y="-651.10696" x="280.52693">f</tspan><tspan y="-643.8679" x="280.44993">t</tspan></text>
<text xml:space="preserve" transform="matrix(1 0 -0 1 -131.4497 719.13)" font-size="9.9626" font-family="CMR10"><tspan y="-646.31997" x="289.0129 292.06147 297.04277 304.26564 308.68904 313.67033 317.82475 326.6815 330.55696 333.32655 341.6254 349.36634 353.2916 357.16706 361.59046">foreachtimestep</tspan></text>
<text xml:space="preserve" transform="matrix(1 0 -0 1 -131.4497 719.13)" font-size="9.9626" font-family="CMMI10" font-style="italic"><tspan y="-646.31997" x="370.45793">t</tspan></text>
<text xml:space="preserve" transform="matrix(1 0 -0 1 -131.4497 719.13)" font-size="9.9626" font-family="CMR10"><tspan y="-646.31997" x="377.37593 380.1455 389.00227 393.42567 398.40696 402.56138 411.41813 415.29359 419.1989 424.72816 427.7767 432.2001 436.6235 440.49897 445.48027 449.3856">ineachtrajectory</tspan></text>
<text xml:space="preserve" transform="matrix(1 0 -0 1 -131.4497 719.13)" font-size="9.9626" font-family="CMMI10" font-style="italic"><tspan y="-646.31997" x="457.96293">&#x03c4;</tspan></text>
<text xml:space="preserve" transform="matrix(1 0 -0 1 -131.4497 719.13)" font-size="6.9738" font-family="CMMI7" font-style="italic"><tspan y="-644.82498" x="462.31794">i</tspan></text>
<text xml:space="preserve" transform="matrix(1 0 -0 1 -131.4497 719.13)" font-size="9.9626" font-family="CMR10"><tspan y="-646.31997" x="465.63493">.</tspan></text>
<text xml:space="preserve" transform="matrix(1 0 -0 1 -131.4497 719.13)" font-size="7.9701" font-family="CMR8"><tspan y="-634.3649" x="139.13694 143.36905">5:</tspan></text>
<text xml:space="preserve" transform="matrix(1 0 -0 1 -131.4497 719.13)" font-size="9.9626" font-family="CMR10"><tspan y="-634.3649" x="165.64893 172.84192 177.82321 186.12206 191.66126 197.20046 201.07592 208.81687 212.69232 218.23152 225.98244 231.79064 236.77193 239.54154 242.31114 246.73455 255.32231 260.30363 264.20896 269.19026 274.72947 277.49906 281.92247 287.1827 294.71446">Computethepolicygradient&#x02c6;</tspan></text>
<text xml:space="preserve" transform="matrix(1 0 -0 1 -131.4497 719.13)" font-size="9.9626" font-family="CMMI10" font-style="italic"><tspan y="-634.3649" x="294.36094">g</tspan></text>
<text xml:space="preserve" transform="matrix(1 0 -0 1 -131.4497 719.13)" font-size="6.9738" font-family="CMMI7" font-style="italic"><tspan y="-632.86996" x="299.11296">k</tspan></text>
<text xml:space="preserve" transform="matrix(1 0 -0 1 -131.4497 719.13)" font-size="9.9626" font-family="CMR10"><tspan y="-634.3649" x="307.33497 312.87419 316.79945 319.56904 325.10826">using</tspan></text>
<text xml:space="preserve" transform="matrix(1 0 -0 1 -131.4497 719.13)" font-size="9.9626" font-family="CMMI10" font-style="italic"><tspan y="-634.3649" x="333.40397">D</tspan></text>
<text xml:space="preserve" transform="matrix(1 0 -0 1 -131.4497 719.13)" font-size="6.9738" font-family="CMMI7" font-style="italic"><tspan y="-632.86996" x="341.65296">k</tspan></text>
<text xml:space="preserve" transform="matrix(1 0 -0 1 -131.4497 719.13)" font-size="9.9626" font-family="CMR10"><tspan y="-634.3649" x="349.87495 354.85624 360.39546">and</tspan></text>
<text xml:space="preserve" transform="matrix(1 0 -0 1 -131.4497 719.13)" font-size="9.9626" font-family="CMMI10" font-style="italic"><tspan y="-634.3649" x="369.24696">V</tspan></text>
<text xml:space="preserve" transform="matrix(1 0 -0 1 -131.4497 719.13)" font-size="9.9626" font-family="CMR10"><tspan y="-634.3649" x="377.27296">.</tspan></text>
<text xml:space="preserve" transform="matrix(1 0 -0 1 -131.4497 719.13)" font-size="9.9626" font-family="CMMI10" font-style="italic"><tspan y="-634.3649" x="394.12995">&#x25b7;</tspan></text>
<text xml:space="preserve" transform="matrix(1 0 -0 1 -131.4497 719.13)" font-size="9.9626" font-family="CMR10"><tspan y="-634.3649" x="402.43196 411.56767 416.54896 420.45429 428.19523 433.1765 442.38197">Moreon&#x02c6;</tspan></text>
<text xml:space="preserve" transform="matrix(1 0 -0 1 -131.4497 719.13)" font-size="9.9626" font-family="CMMI10" font-style="italic"><tspan y="-634.3649" x="442.03395">g</tspan></text>
<text xml:space="preserve" transform="matrix(1 0 -0 1 -131.4497 719.13)" font-size="6.9738" font-family="CMMI7" font-style="italic"><tspan y="-632.86996" x="446.78495">k</tspan></text>
<text xml:space="preserve" transform="matrix(1 0 -0 1 -131.4497 719.13)" font-size="9.9626" font-family="CMR10"><tspan y="-634.3649" x="455.00794 458.9332 464.19346 469.17475 474.71397">soon!</tspan></text>
<text xml:space="preserve" transform="matrix(1 0 -0 1 -131.4497 719.13)" font-size="7.9701" font-family="CMR8"><tspan y="-622.4099" x="139.13694 143.36905">6:</tspan></text>
<text xml:space="preserve" transform="matrix(1 0 -0 1 -131.4497 719.13)" font-size="9.9626" font-family="CMR10"><tspan y="-622.4099" x="165.64893 173.12088 178.93903 184.47823 189.45952 193.33498 201.07593 204.95139 210.49059 218.23154 224.04969 229.03098 231.80059 234.57019 238.99359">Updatethepolicy</tspan></text>
<text xml:space="preserve" transform="matrix(1 0 -0 1 -131.4497 719.13)" font-size="9.9626" font-family="CMMI10" font-style="italic"><tspan y="-622.4099" x="247.56394">&#x03c0;</tspan></text>
<text xml:space="preserve" transform="matrix(1 0 -0 1 -131.4497 719.13)" font-size="9.9626" font-family="CMR10"><tspan y="-622.4099" x="256.92094 264.11393 266.8835 270.75898 279.96443">with&#x02c6;</tspan></text>
<text xml:space="preserve" transform="matrix(1 0 -0 1 -131.4497 719.13)" font-size="9.9626" font-family="CMMI10" font-style="italic"><tspan y="-622.4099" x="279.61393">g</tspan></text>
<text xml:space="preserve" transform="matrix(1 0 -0 1 -131.4497 719.13)" font-size="6.9738" font-family="CMMI7" font-style="italic"><tspan y="-620.9149" x="284.36595">k</tspan></text>
<text xml:space="preserve" transform="matrix(1 0 -0 1 -131.4497 719.13)" font-size="9.9626" font-family="CMR10"><tspan y="-622.4099" x="292.58894 298.12815 302.0534 304.823 310.3622 318.66105 324.20027 332.0209 339.63233 345.72944 353.2014 358.73066 363.71195 372.02076 378.10789 382.53129 386.40675 390.83015">usingSGD,Adam,etc.</tspan></text>
<text xml:space="preserve" transform="matrix(1 0 -0 1 -131.4497 719.13)" font-size="7.9701" font-family="CMR8"><tspan y="-610.4539" x="139.13694 143.36905">7:</tspan></text>
<text xml:space="preserve" transform="matrix(1 0 -0 1 -131.4497 719.13)" font-size="9.9626" font-family="CMR10"><tspan y="-610.4539" x="165.64893 172.15451 174.92412 182.11713 186.82944 191.81073 194.58034 200.11954 207.86049 210.90904 216.44824 221.98744 226.41085 230.2863 233.05591 238.0372">Fitvaluefunction</tspan></text>
<text xml:space="preserve" transform="matrix(1 0 -0 1 -131.4497 719.13)" font-size="9.9626" font-family="CMMI10" font-style="italic"><tspan y="-610.4539" x="246.87192">V</tspan></text>
<text xml:space="preserve" transform="matrix(1 0 -0 1 -131.4497 719.13)" font-size="9.9626" font-family="CMR10"><tspan y="-610.4539" x="258.21894 263.4792 272.05699 275.9623 280.3857 285.367 289.27235 293.69575 297.63096 301.5562 304.3258 309.3071 318.16386 323.14515 332.0019 341.1376 346.67683 356.7789 362.59709 367.02049 370.61698 377.541 381.9644 386.3878">byregressiononMSEbetween</tspan></text>
<text xml:space="preserve" transform="matrix(1 0 -0 1 -131.4497 719.13)" font-size="9.9626" font-family="CMMI10" font-style="italic"><tspan y="-598.4989" x="273.57795">V</tspan></text>
<text xml:space="preserve" transform="matrix(1 0 -0 1 -131.4497 719.13)" font-size="9.9626" font-family="CMR10"><tspan y="-598.4989" x="284.92396 289.90525 295.44447">and</tspan></text>
<text xml:space="preserve" transform="matrix(1 0 -0 1 -131.4497 719.13)" font-size="9.9626" font-family="CMMI10" font-style="italic"><tspan y="-598.4989" x="304.29597">R</tspan></text>
<text xml:space="preserve" transform="matrix(1 0 -0 1 -131.4497 719.13)" font-size="6.9738" font-family="CMMI7" font-style="italic"><tspan y="-603.2869" x="311.93696">f</tspan><tspan y="-596.04696" x="311.85997">t</tspan></text>
<text xml:space="preserve" transform="matrix(1 0 -0 1 -131.4497 719.13)" font-size="9.9626" font-family="CMR10"><tspan y="-598.49899" x="320.42295 325.96217 329.88743 332.657 338.19624 346.49507 352.03428 359.85493 367.46635 373.56346 381.0354 386.57463 391.5559 399.85478 405.9419 410.3653 414.24076 418.66416">usingSGD,Adam,etc.</tspan></text>
<text xml:space="preserve" transform="matrix(1 0 -0 1 -131.4497 719.13)" font-size="7.9701" font-family="CMR8"><tspan y="-586.54397" x="139.13695 143.36907">8:</tspan></text>
<text xml:space="preserve" transform="matrix(1 0 -0 1 -131.4497 719.13)" font-size="9.9626" font-family="CMBX10" font-weight="bold"><tspan y="-586.54397" x="150.70494 155.95523 162.32134 172.00499 175.50186 181.23036">endfor</tspan></text>
<path transform="matrix(1,0,0,-1,2.3182984,136.77002)" stroke-width=".398" stroke-linecap="butt" stroke-miterlimit="10" stroke-linejoin="miter" fill="none" stroke="#000000" d="M0 0H343.711"/>
<text xml:space="preserve" transform="matrix(1 0 -0 1 -131.4497 719.13)" font-size="9.9626" font-family="CMR10"><tspan y="-139.255" x="303.133">1</tspan></text>
</svg>
